<svg xmlns="http://www.w3.org/2000/svg" viewBox="0 0 800 400">
  <!-- Background Shape -->
  <path d="M0 0 L800 0 L800 400 L0 400 Z" fill="#FFF5F5"/>
  <path d="M500,50 Q800,0 700,200 Q600,400 400,350 Q200,300 300,150 Q400,0 500,50" 
        fill="#FFE4E1" opacity="0.5"/>

  <!-- Team Illustration -->
  <!-- Person 1 -->
  <g transform="translate(450,180)">
    <rect x="-20" y="0" width="40" height="80" fill="#14B8A6"/>
    <circle cx="0" cy="-20" r="20" fill="#14B8A6"/>
  </g>

  <!-- Person 2 -->
  <g transform="translate(500,180)">
    <rect x="-20" y="0" width="40" height="80" fill="#EF4444"/>
    <circle cx="0" cy="-20" r="20" fill="#EF4444"/>
  </g>

  <!-- Person 3 -->
  <g transform="translate(550,180)">
    <rect x="-20" y="0" width="40" height="80" fill="#3B82F6"/>
    <circle cx="0" cy="-20" r="20" fill="#3B82F6"/>
  </g>

  <!-- Person 4 -->
  <g transform="translate(600,180)">
    <rect x="-20" y="0" width="40" height="80" fill="#1E3A8A"/>
    <circle cx="0" cy="-20" r="20" fill="#1E3A8A"/>
  </g>

  <!-- Decorative Plants -->
  <!-- Left Plant -->
  <g transform="translate(400,160)">
    <path d="M0,0 C10,-20 30,-20 20,0 C10,20 -10,20 0,0" fill="#047857"/>
    <path d="M-10,10 C0,-10 20,-10 10,10 C0,30 -20,30 -10,10" fill="#047857"/>
  </g>

  <!-- Right Plant -->
  <g transform="translate(650,160)">
    <path d="M0,0 C10,-20 30,-20 20,0 C10,20 -10,20 0,0" fill="#047857"/>
    <path d="M-10,10 C0,-10 20,-10 10,10 C0,30 -20,30 -10,10" fill="#047857"/>
  </g>

  <!-- Bottom Plant -->
  <g transform="translate(525,280)">
    <path d="M0,0 C10,-20 30,-20 20,0 C10,20 -10,20 0,0" fill="#047857"/>
    <path d="M-10,10 C0,-10 20,-10 10,10 C0,30 -20,30 -10,10" fill="#047857"/>
  </g>
</svg> 